<?xml version="1.0"?>
<svg width="1602.0000000000002" height="940.9999999999998" xmlns="http://www.w3.org/2000/svg" xmlns:svg="http://www.w3.org/2000/svg" version="1.1">
 <g class="layer" display="inline">
  <title>Layer 1</title>
  <g id="svg_12" transform="matrix(1 0 0 1 0 0) matrix(1 0 0 1 0 0) matrix(1 0 0 1 0 5.26316) translate(0.5 0.5)"/>
  <g data-cell-id="BEqLYDu7R9wi5RTf14GY-4" id="svg_20" transform="matrix(1 0 0 1 0 0) matrix(1 0 0 1 0 0) matrix(1 0 0 1 0 5.26316)">
   <g id="svg_21" transform="translate(0.5,0.5)">
    <rect fill="light-dark(#ffffff, var(--ge-dark-color, #121212))" height="560" id="svg_22" stroke="light-dark(rgb(0, 0, 0), rgb(255, 255, 255))" width="320" x="640" y="190"/>
   </g>
  </g>
  <g data-cell-id="BEqLYDu7R9wi5RTf14GY-7" id="svg_37" transform="matrix(1 0 0 1 0 0) matrix(1 0 0 1 0 0) matrix(1 0 0 1 0 5.26316)">
   <g id="svg_38" transform="translate(0.5,0.5)">
    <path d="m1600,752.5l-1600,0" fill="none" id="svg_39" stroke="light-dark(rgb(0, 0, 0), rgb(255, 255, 255))" stroke-miterlimit="10"/>
   </g>
  </g>
  <g data-cell-id="BEqLYDu7R9wi5RTf14GY-8" id="svg_40" transform="matrix(1 0 0 1 0 0) matrix(1 0 0 1 0 0) matrix(1 0 0 1 0 5.26316)">
   <g id="svg_41" transform="translate(0.5,0.5)">
    <rect fill="light-dark(#ffffff, var(--ge-dark-color, #121212))" height="560" id="svg_42" stroke="light-dark(rgb(0, 0, 0), rgb(255, 255, 255))" width="320" x="0" y="190"/>
   </g>
  </g>
  <g data-cell-id="BEqLYDu7R9wi5RTf14GY-9" id="svg_43" transform="matrix(1 0 0 1 0 0) matrix(1 0 0 1 0 0) matrix(1 0 0 1 0 0) matrix(1 0 0 1 0 5.26316)">
   <g id="svg_44" transform="translate(0.5,0.5)">
    <rect fill="light-dark(#ffffff, var(--ge-dark-color, #121212))" height="560" id="svg_45" stroke="light-dark(rgb(0, 0, 0), rgb(255, 255, 255))" width="320" x="320" y="190"/>
   </g>
  </g>
  <g data-cell-id="BEqLYDu7R9wi5RTf14GY-10" id="svg_46" transform="matrix(1 0 0 1 0 0) matrix(1 0 0 1 0 0) matrix(1 0 0 1 0 0) matrix(1 0 0 1 0 0) matrix(1 0 0 1 0 0) matrix(1 0 0 1 0 5.26316)">
   <g id="svg_47" transform="translate(0.5,0.5)">
    <rect fill="light-dark(#ffffff, var(--ge-dark-color, #121212))" height="560" id="svg_48" stroke="light-dark(rgb(0, 0, 0), rgb(255, 255, 255))" width="320" x="960" y="190"/>
   </g>
  </g>
  <g data-cell-id="BEqLYDu7R9wi5RTf14GY-11" id="svg_49" transform="matrix(1 0 0 1 0 0) matrix(1 0 0 1 0 0) matrix(1 0 0 1 0 5.26316)">
   <g id="svg_50" transform="translate(0.5,0.5)">
    <path d="m320,470l320,0" fill="none" id="svg_51" stroke="light-dark(rgb(0, 0, 0), rgb(255, 255, 255))" stroke-miterlimit="10"/>
   </g>
  </g>
  <g data-cell-id="BEqLYDu7R9wi5RTf14GY-12" id="svg_52" transform="matrix(1 0 0 1 0 0) matrix(1 0 0 1 0 0) matrix(1 0 0 1 0 5.26316)">
   <g id="svg_53" transform="translate(0.5,0.5)">
    <path d="m960,468.57l320,0" fill="none" id="svg_54" stroke="light-dark(rgb(0, 0, 0), rgb(255, 255, 255))" stroke-miterlimit="10"/>
   </g>
  </g>
  <g data-cell-id="BEqLYDu7R9wi5RTf14GY-15" id="svg_69" transform="matrix(1 0 0 1 0 0) matrix(1 0 0 0.971559 0 26.593)">
   <g id="svg_70" transform="translate(0.5,0.5)">
    <path d="m802,750l0,190m-4,0l0,-190m0,190" fill="none" id="svg_71" stroke="light-dark(rgb(0, 0, 0), rgb(255, 255, 255))" stroke-miterlimit="10"/>
   </g>
  </g>
  <g data-cell-id="BEqLYDu7R9wi5RTf14GY-20" id="svg_100" transform="translate(-1.75439 0) translate(-1.75439 0) matrix(1 0 0 1 0 0) translate(-1.75439 0) matrix(1 0 0 1 6.45161 5.26316)">
   <g id="svg_101" transform="translate(0.5,0.5)">
    <rect fill="light-dark(#ffffff, var(--ge-dark-color, #121212))" height="560" id="svg_102" stroke="light-dark(rgb(0, 0, 0), rgb(255, 255, 255))" width="320" x="1280" y="190"/>
   </g>
  </g>
  <text fill="#000000" font-family="Cursive" font-size="39" id="svg_138" letter-spacing="1" stroke-width="0" text-anchor="middle" transform="matrix(1 0 0 1 135.714 -35.7143)" x="158.48" xml:space="preserve" y="97.1">The Business Model Canvas</text>
  <text fill="#000000" font-family="Cursive" font-size="30" id="svg_174" stroke-width="0" text-anchor="middle" transform="matrix(1 0 0 1 119.048 16.6667)" x="41.81" xml:space="preserve" y="220.9">Key Partners 🔗</text>
  <text fill="#000000" font-family="Cursive" font-size="16" id="svg_175" stroke-width="0" text-anchor="middle" transform="matrix(1 0 0 1 -51.8433 13.5945)" x="1515.46" xml:space="preserve" y="16.52">Created by sevetech  2026 (c)</text>
  <text fill="#000000" font-family="Cursive" font-size="30" id="svg_176" stroke-width="0" text-anchor="middle" transform="matrix(1 0 0 1 121.429 11.9048)" x="377.52" xml:space="preserve" y="225.67">Key Activities 🏭</text>
  <text fill="#000000" font-family="Cursive" font-size="30" id="svg_177" stroke-width="0" text-anchor="middle" x="484.67" xml:space="preserve" y="518.52">Key Resources 🧰</text>
  <text fill="#000000" font-family="Cursive" font-size="30" id="svg_178" stroke-width="0" text-anchor="middle" transform="matrix(1 0 0 1 139.286 21.4286)" x="666.21" xml:space="preserve" y="216.14">Value Propositions 📦</text>
  <text fill="#000000" font-family="Cursive" font-size="30" id="svg_179" stroke-width="0" text-anchor="middle" transform="matrix(1 0 0 2.6848 0 -346.753)" x="1021.23" xml:space="preserve" y="239"/>
  <text fill="#000000" font-family="Cursive" font-size="30" id="svg_1" stroke="#000000" stroke-width="0" text-anchor="middle" transform="matrix(1 0 0 1 214.286 76.7857)" x="838.71" xml:space="preserve" y="158.64">Customer</text>
  <text fill="#000000" font-family="Cursive" font-size="30" id="svg_2" stroke="#000000" stroke-width="0" text-anchor="middle" x="1097.64" xml:space="preserve" y="272.93">Relationship 🤗</text>
  <text fill="#000000" font-family="Cursive" font-size="30" id="svg_3" stroke="#000000" stroke-width="0" text-anchor="middle" x="1402.52" xml:space="preserve" y="273.19">Segments 📈</text>
  <text fill="#000000" font-family="Cursive" font-size="30" id="svg_4" stroke="#000000" stroke-width="0" text-anchor="middle" transform="matrix(1 0 0 1 214.286 76.7857)" x="1163.18" xml:space="preserve" y="153.5">Customer</text>
  <text fill="#000000" font-family="Cursive" font-size="30" id="svg_5" stroke="#000000" stroke-width="0" text-anchor="middle" transform="matrix(1 0 0 1 19.3548 0)" x="1060.58" xml:space="preserve" y="515.13">Channels ⛟</text>
  <text fill="#000000" font-family="Cursive" font-size="30" id="svg_6" stroke="#000000" stroke-width="0" text-anchor="middle" transform="matrix(1 0 0 1 6.45161 0)" x="141.23" xml:space="preserve" y="799">Cost Structure 💸</text>
  <text fill="#000000" font-family="Cursive" font-size="30" id="svg_7" stroke="#000000" stroke-width="0" text-anchor="middle" x="970.26" xml:space="preserve" y="805.45">Revenue Streams 💰</text>
  <rect fill="#bfbfbf" height="54.84" id="svg_8" stroke="#000000" stroke-width="5" width="296.77" x="36.4" y="89.32"/>
  <text fill="#7f7f7f" font-family="Cursive" font-size="30" id="svg_9" stroke="#000000" stroke-width="0" text-anchor="middle" x="140.38" xml:space="preserve" y="126.35">Designed for:</text>
  <rect fill="#bfbfbf" height="54.84" id="svg_10" stroke="#000000" stroke-width="5" transform="matrix(1 0 0 1 -223.81 -173.81)" width="296.77" x="1253.84" y="263.13"/>
  <rect fill="#bfbfbf" height="54.84" id="svg_13" stroke="#000000" stroke-width="5" width="296.77" x="2194.13" y="463.51"/>
  <text fill="#7f7f7f" font-family="Cursive" font-size="30" id="svg_14" stroke="#000000" stroke-width="0" text-anchor="middle" x="2389.69" xml:space="preserve" y="362">Date</text>
  <rect fill="#bfbfbf" height="54.84" id="svg_15" stroke="#000000" stroke-width="5" transform="matrix(1 0 0 1 235.714 -316.667)" width="296.77" x="463.1" y="405.98"/>
  <rect fill="#bfbfbf" height="54.84" id="svg_16" stroke="#000000" stroke-width="5" transform="matrix(1 0 0 1 -109.524 -319.048)" width="296.77" x="479.51" y="408.36"/>
  <text fill="#7f7f7f" font-family="Cursive" font-size="30" id="svg_17" stroke="#000000" stroke-width="0" text-anchor="middle" transform="matrix(1 0 0 1 -133.333 -283.333)" x="625.14" xml:space="preserve" y="410.19">Designed by:</text>
  <text fill="#7f7f7f" font-family="Cursive" font-size="30" id="svg_18" stroke="#000000" stroke-width="0" text-anchor="middle" transform="matrix(1 0 0 1 -11.9044 -561.904)" x="763.24" xml:space="preserve" y="691.14">Date:</text>
  <text fill="#7f7f7f" font-family="Cursive" font-size="30" id="svg_19" stroke="#000000" stroke-width="0" text-anchor="middle" transform="matrix(1 0 0 1 447.619 -847.618)" x="648.96" xml:space="preserve" y="974.48">Version:</text>
 </g>
</svg>