<svg xmlns="http://www.w3.org/2000/svg" width="3.5in" height="2in" viewBox="0 0 252 144">
<rect width="252" height="144" fill="#faf7f0"/>
<g fill="none" stroke="#c9b896" stroke-width="0.5">
<rect x="166.00" y="97.71" width="5.71" height="5.71"/>
<rect x="171.71" y="97.71" width="5.71" height="5.71"/>
<rect x="166.00" y="86.29" width="11.43" height="11.43"/>
<rect x="148.86" y="86.29" width="17.14" height="17.14"/>
<rect x="148.86" y="103.43" width="28.57" height="28.57"/>
<rect x="177.43" y="86.29" width="45.71" height="45.71"/>
<rect x="148.86" y="12.00" width="74.29" height="74.29"/>
<rect x="28.86" y="12.00" width="120.00" height="120.00"/>
</g>
<path d="M 177.43 97.71 A 11.43 11.43 0 0 1 166.00 86.29 A 17.14 17.14 0 0 1 148.86 103.43 A 28.57 28.57 0 0 1 177.43 132.00 A 45.71 45.71 0 0 1 223.14 86.29 A 74.29 74.29 0 0 1 148.86 12.00 A 120.00 120.00 0 0 1 28.86 132.00" fill="none" stroke="#8a6d3b" stroke-width="0.8" stroke-linecap="round" stroke-linejoin="round"/>
<text x="126.0" y="130" font-family="Georgia, serif" font-size="7" fill="#8a6d3b" text-anchor="middle">1, 1, 2, 3, 5, 8, 13, 21, 34</text>
<text x="126.0" y="139" font-family="Georgia, serif" font-size="6" fill="#a89878" text-anchor="middle">&#966; = 1.618...</text>
</svg>