<?plantuml 1.2026.1?><svg xmlns="http://www.w3.org/2000/svg" xmlns:xlink="http://www.w3.org/1999/xlink" contentStyleType="text/css" data-diagram-type="DESCRIPTION" height="570px" preserveAspectRatio="none" style="width:2473px;height:570px;background:#FFFFFF;" version="1.1" viewBox="0 0 2473 570" width="2473px" zoomAndPan="magnify"><defs/><g><!--cluster Our SaaS System--><g class="cluster" data-qualified-name="Our SaaS System" data-source-line="11" id="ent0004"><path d="M262,248.242 L398.8984,248.242 A3.75,3.75 0 0 1 401.3984,250.742 L408.3984,270.5389 L1896,270.5389 A2.5,2.5 0 0 1 1898.5,273.0389 L1898.5,488.742 A2.5,2.5 0 0 1 1896,491.242 L262,491.242 A2.5,2.5 0 0 1 259.5,488.742 L259.5,250.742 A2.5,2.5 0 0 1 262,248.242" fill="none" style="stroke:#000000;stroke-width:1.5;"/><line style="stroke:#000000;stroke-width:1.5;" x1="259.5" x2="408.3984" y1="270.5389" y2="270.5389"/><text fill="#000000" font-family="sans-serif" font-size="14" font-weight="bold" lengthAdjust="spacing" textLength="135.8984" x="263.5" y="263.2371">Our SaaS System</text></g><!--entity auth--><g class="entity" data-qualified-name="Our SaaS System.auth" data-source-line="13" id="ent0005"><rect fill="#F1F1F1" height="52.5938" rx="2.5" ry="2.5" style="stroke:#181818;stroke-width:0.5;" width="281.4678" x="1132" y="283.242"/><text fill="#000000" font-family="sans-serif" font-size="14" lengthAdjust="spacing" textLength="161.6357" x="1142" y="306.2371">Login / Sign-up System</text><text fill="#000000" font-family="sans-serif" font-size="14" lengthAdjust="spacing" textLength="261.4678" x="1142" y="322.534">(NextAuth.js / Clerk / Supabase Auth)</text></g><!--entity core--><g class="entity" data-qualified-name="Our SaaS System.core" data-source-line="14" id="ent0006"><rect fill="#F1F1F1" height="52.5938" rx="2.5" ry="2.5" style="stroke:#181818;stroke-width:0.5;" width="267.8301" x="813.5" y="283.242"/><text fill="#000000" font-family="sans-serif" font-size="14" lengthAdjust="spacing" textLength="177.2695" x="823.5" y="306.2371">Main Features / Core App</text><text fill="#000000" font-family="sans-serif" font-size="14" lengthAdjust="spacing" textLength="247.8301" x="823.5" y="322.534">(Next.js API routes / server actions)</text></g><!--entity billing--><g class="entity" data-qualified-name="Our SaaS System.billing" data-source-line="15" id="ent0007"><rect fill="#F1F1F1" height="52.5938" rx="2.5" ry="2.5" style="stroke:#181818;stroke-width:0.5;" width="234.7305" x="528" y="283.242"/><text fill="#000000" font-family="sans-serif" font-size="14" lengthAdjust="spacing" textLength="126.1094" x="538" y="306.2371">Payments &amp; Plans</text><text fill="#000000" font-family="sans-serif" font-size="14" lengthAdjust="spacing" textLength="214.7305" x="538" y="322.534">(Stripe Subscriptions + Billing)</text></g><!--entity notify--><g class="entity" data-qualified-name="Our SaaS System.notify" data-source-line="16" id="ent0008"><rect fill="#F1F1F1" height="52.5938" rx="2.5" ry="2.5" style="stroke:#181818;stroke-width:0.5;" width="240.6777" x="1581" y="283.242"/><text fill="#000000" font-family="sans-serif" font-size="14" lengthAdjust="spacing" textLength="153.5762" x="1591" y="306.2371">Emails &amp; Notifications</text><text fill="#000000" font-family="sans-serif" font-size="14" lengthAdjust="spacing" textLength="220.6777" x="1591" y="322.534">(Resend / SendGrid / Postmark)</text></g><!--entity db--><g class="entity" data-qualified-name="Our SaaS System.db" data-source-line="18" id="ent0009"><path d="M338.5,423.242 C338.5,413.242 500.5688,413.242 500.5688,413.242 C500.5688,413.242 662.6377,413.242 662.6377,423.242 L662.6377,464.8357 C662.6377,474.8357 500.5688,474.8357 500.5688,474.8357 C500.5688,474.8357 338.5,474.8357 338.5,464.8357 L338.5,423.242" fill="#F1F1F1" style="stroke:#181818;stroke-width:0.5;"/><path d="M338.5,423.242 C338.5,433.242 500.5688,433.242 500.5688,433.242 C500.5688,433.242 662.6377,433.242 662.6377,423.242" fill="none" style="stroke:#181818;stroke-width:0.5;"/><text fill="#000000" font-family="sans-serif" font-size="14" lengthAdjust="spacing" textLength="104.6719" x="348.5" y="450.2371">Main Database</text><text fill="#000000" font-family="sans-serif" font-size="14" lengthAdjust="spacing" textLength="304.1377" x="348.5" y="466.534">(PostgreSQL - Supabase / Neon / AWS RDS)</text></g><!--entity files--><g class="entity" data-qualified-name="Our SaaS System.files" data-source-line="19" id="ent0010"><path d="M713,423.242 C713,413.242 862.3096,413.242 862.3096,413.242 C862.3096,413.242 1011.6191,413.242 1011.6191,423.242 L1011.6191,464.8357 C1011.6191,474.8357 862.3096,474.8357 862.3096,474.8357 C862.3096,474.8357 713,474.8357 713,464.8357 L713,423.242" fill="#F1F1F1" style="stroke:#181818;stroke-width:0.5;"/><path d="M713,423.242 C713,433.242 862.3096,433.242 862.3096,433.242 C862.3096,433.242 1011.6191,433.242 1011.6191,423.242" fill="none" style="stroke:#181818;stroke-width:0.5;"/><text fill="#000000" font-family="sans-serif" font-size="14" lengthAdjust="spacing" textLength="83.6719" x="723" y="450.2371">File Storage</text><text fill="#000000" font-family="sans-serif" font-size="14" lengthAdjust="spacing" textLength="278.6191" x="723" y="466.534">(S3 / Supabase Storage / Cloudflare R2)</text></g><!--entity queue--><g class="entity" data-qualified-name="Our SaaS System.queue" data-source-line="21" id="ent0011"><path d="M1304.5,414.742 L1570.0137,414.742 C1575.0137,414.742 1575.0137,444.1873 1575.0137,444.1873 C1575.0137,444.1873 1575.0137,473.6326 1570.0137,473.6326 L1304.5,473.6326 C1299.5,473.6326 1299.5,444.1873 1299.5,444.1873 C1299.5,444.1873 1299.5,414.742 1304.5,414.742" fill="#F1F1F1" style="stroke:#181818;stroke-width:0.5;"/><path d="M1570.0137,414.742 C1565.0137,414.742 1565.0137,444.1873 1565.0137,444.1873 C1565.0137,473.6326 1570.0137,473.6326 1570.0137,473.6326" fill="none" style="stroke:#181818;stroke-width:0.5;"/><text fill="#000000" font-family="sans-serif" font-size="14" lengthAdjust="spacing" textLength="111.8018" x="1304.5" y="432.7371">Message Queue</text><text fill="#000000" font-family="sans-serif" font-size="14" lengthAdjust="spacing" textLength="150.8213" x="1304.5" y="449.034">(for background jobs)</text><text fill="#000000" font-family="sans-serif" font-size="14" lengthAdjust="spacing" textLength="255.5137" x="1304.5" y="465.3309">(Resend Queue / BullMQ / AWS SQS)</text></g><!--entity users--><g class="entity" data-qualified-name="users" data-source-line="7" id="ent0002"><path d="M1037.5636,18.3583 C1041.8875,11.8882 1047.178,11.3407 1051.7062,18.1407 C1056.88,10.1674 1062.2529,11.5475 1067.6674,17.872 C1072.1178,10.2641 1080.5373,9.3261 1084.9137,17.9506 C1089.1091,9.1203 1095.8316,9.9366 1100.6789,17.3166 C1105.7515,9.872 1110.87,9.5806 1116.5654,16.6341 C1122.0405,9.2599 1127.8261,7.3836 1134.033,15.826 C1137.1855,8.076 1143.9594,6 1149.3804,13.5505 C1154.5493,7.0101 1159.7698,7.835 1164.2223,14.3642 C1168.8943,6.2612 1177.0528,7.9247 1181.0133,15.144 C1186.1654,8.4247 1191.624,7.6353 1196.2681,15.6694 C1200.9113,8.1973 1208.5184,8.3926 1212.164,16.676 C1218.0545,9.0685 1223.0929,9.3183 1228.8294,16.8456 C1233.4619,10.8157 1240.7182,9.6022 1243.9939,18.2477 C1249.6489,10.2044 1256.6693,10.3032 1262.2285,18.3562 C1269.0144,21.0305 1272.3391,26.5229 1265.6258,32.4509 C1272.938,38.3867 1271.3845,45.5445 1262.938,48.9063 C1259.6728,58.5304 1251.1161,59.0567 1245.6698,51.0415 C1241.3392,57.5249 1235.7245,58.494 1230.4089,52.2196 C1226.3466,62.0162 1219.7178,61.8454 1213.5651,54.2433 C1208.6569,61.5379 1201.9411,61.2077 1197.4397,53.7972 C1192.9752,60.4245 1187.4612,61.0475 1181.9387,55.1015 C1177.6413,63.431 1172.3261,64.1909 1165.632,57.747 C1160.792,67.0798 1154.7777,68.1208 1148.1445,59.493 C1142.0289,65.2276 1137.3265,65.5188 1133.2287,57.3313 C1127.435,64.2339 1119.8318,63.8647 1116.0511,55.1212 C1112.2872,62.97 1106.14,63.798 1101.3011,56.144 C1094.7419,64.7764 1088.5153,61.919 1084.1577,53.8801 C1078.7263,62.1152 1071.1043,59.5807 1067.8808,51.6562 C1062.6649,58.9785 1055.8079,59.3324 1052.0531,50.2468 C1046.9555,58.6034 1040.4634,57.6283 1035.3564,50.2568 C1028.7821,45.0575 1029.1832,39.9216 1035.4096,34.7662 C1027.6954,29.3292 1028.5878,21.6043 1037.5636,18.3583" fill="#F1F1F1" style="stroke:#181818;stroke-width:0.5;"/><text fill="#000000" font-family="sans-serif" font-size="14" lengthAdjust="spacing" textLength="211.0186" x="1042" y="37.2371">Users (on phone or computer)</text></g><!--entity frontend--><g class="entity" data-qualified-name="frontend" data-source-line="9" id="ent0003"><rect fill="#F1F1F1" height="52.5938" rx="2.5" ry="2.5" style="stroke:#181818;stroke-width:0.5;" width="250.7949" x="822" y="132.242"/><text fill="#000000" font-family="sans-serif" font-size="14" lengthAdjust="spacing" textLength="97.5967" x="832" y="155.2371">Website / App</text><text fill="#000000" font-family="sans-serif" font-size="14" lengthAdjust="spacing" textLength="230.7949" x="832" y="171.534">(React + Next.js + Tailwind CSS)</text></g><!--entity external_login--><g class="entity" data-qualified-name="external_login" data-source-line="24" id="ent0012"><rect fill="#F1F1F1" height="52.5938" rx="2.5" ry="2.5" style="stroke:#181818;stroke-width:0.5;" width="210.873" x="2257" y="417.742"/><text fill="#000000" font-family="sans-serif" font-size="14" lengthAdjust="spacing" textLength="164.2813" x="2267" y="440.7371">External Login Services</text><text fill="#000000" font-family="sans-serif" font-size="14" lengthAdjust="spacing" textLength="190.873" x="2267" y="457.034">(Google, GitHub, Microsoft)</text></g><g class="entity" data-qualified-name="GMN26" data-source-line="46" id="ent0027"><path d="M6,297.242 L6,322.3748 L243.2646,322.3748 L243.2646,307.242 L233.2646,297.242 L6,297.242" fill="#FAFAFA" style="stroke:#181818;stroke-width:0.5;"/><path d="M233.2646,297.242 L233.2646,307.242 L243.2646,307.242 L233.2646,297.242" fill="#FAFAFA" style="stroke:#181818;stroke-width:1;"/><text fill="#000000" font-family="sans-serif" font-size="13" lengthAdjust="spacing" textLength="216.2646" x="12" y="314.3089">Usually hosted on Vercel / Netlify</text></g><g class="entity" data-qualified-name="GMN29" data-source-line="50" id="ent0030"><path d="M1914.5,431.742 L1914.5,456.8748 L2206.7227,456.8748 L2206.7227,441.742 L2196.7227,431.742 L1914.5,431.742" fill="#FAFAFA" style="stroke:#181818;stroke-width:0.5;"/><path d="M2196.7227,431.742 L2196.7227,441.742 L2206.7227,441.742 L2196.7227,431.742" fill="#FAFAFA" style="stroke:#181818;stroke-width:1;"/><text fill="#000000" font-family="sans-serif" font-size="13" lengthAdjust="spacing" textLength="271.2227" x="1920.5" y="448.8089">Often serverless (Vercel functions / Edge)</text></g><g class="entity" data-qualified-name="GMN32" data-source-line="58" id="ent0033"><path d="M1929.5,538.242 L1929.5,563.3748 L2191.6157,563.3748 L2191.6157,548.242 L2181.6157,538.242 L1929.5,538.242" fill="#FAFAFA" style="stroke:#181818;stroke-width:0.5;"/><path d="M2181.6157,538.242 L2181.6157,548.242 L2191.6157,548.242 L2181.6157,538.242" fill="#FAFAFA" style="stroke:#181818;stroke-width:1;"/><text fill="#000000" font-family="sans-serif" font-size="13" lengthAdjust="spacing" textLength="241.1157" x="1935.5" y="555.3089">&#169; 2026 SevTech. All rights reserved.</text></g><!--link users to frontend--><g class="link" data-entity-1="ent0002" data-entity-2="ent0003" data-link-type="dependency" data-source-line="26" id="lnk13"><path d="M1111.74,55.502 C1077.25,76.972 1030.1634,106.2807 993.9134,128.8507" fill="none" id="users-to-frontend" style="stroke:#181818;stroke-width:1;"/><polygon fill="#181818" points="988.82,132.022,998.5743,130.6607,993.0645,129.3793,994.346,123.8695,988.82,132.022" style="stroke:#181818;stroke-width:1;"/><text fill="#000000" font-family="sans-serif" font-size="13" lengthAdjust="spacing" textLength="75.9878" x="1059.5" y="98.3089">visits / uses</text></g><!--link frontend to auth--><g class="link" data-entity-1="ent0003" data-entity-2="ent0005" data-link-type="dependency" data-source-line="28" id="lnk14"><path d="M1003.37,185.352 C1063.08,212.732 1151.7258,253.3717 1211.3658,280.7117" fill="none" id="frontend-to-auth" style="stroke:#181818;stroke-width:1;"/><polygon fill="#181818" points="1216.82,283.212,1210.3055,275.8254,1212.2748,281.1284,1206.9718,283.0977,1216.82,283.212" style="stroke:#181818;stroke-width:1;"/><text fill="#000000" font-family="sans-serif" font-size="13" lengthAdjust="spacing" textLength="42.8594" x="1100.5" y="228.3089">sign in</text></g><!--link frontend to core--><g class="link" data-entity-1="ent0003" data-entity-2="ent0006" data-link-type="dependency" data-source-line="29" id="lnk15"><path d="M947.5,185.352 C947.5,212.652 947.5,249.612 947.5,276.962" fill="none" id="frontend-to-core" style="stroke:#181818;stroke-width:1;"/><polygon fill="#181818" points="947.5,282.962,951.5,273.962,947.5,277.962,943.5,273.962,947.5,282.962" style="stroke:#181818;stroke-width:1;"/><text fill="#000000" font-family="sans-serif" font-size="13" lengthAdjust="spacing" textLength="77.0796" x="948.5" y="228.3089">use the app</text></g><!--link frontend to billing--><g class="link" data-entity-1="ent0003" data-entity-2="ent0007" data-link-type="dependency" data-source-line="30" id="lnk16"><path d="M895.58,185.352 C840.1,212.732 758.0409,253.2175 702.6209,280.5575" fill="none" id="frontend-to-billing" style="stroke:#181818;stroke-width:1;"/><polygon fill="#181818" points="697.24,283.212,707.081,282.8175,701.724,280.9999,703.5416,275.643,697.24,283.212" style="stroke:#181818;stroke-width:1;"/><text fill="#000000" font-family="sans-serif" font-size="13" lengthAdjust="spacing" textLength="90.8604" x="832.5" y="228.3089">upgrade / pay</text></g><!--link auth to external_login--><g class="link" data-entity-1="ent0005" data-entity-2="ent0012" data-link-type="dependency" data-source-line="32" id="lnk17"><path d="M1413.28,324.102 C1458.95,328.242 1509.86,332.652 1556.5,336.242 C1764.76,352.252 1818.79,336.252 2025.5,366.242 C2118.44,379.732 2139.95,392.312 2231.5,413.242 C2239.69,415.112 2242.3112,415.7134 2250.8312,417.6634" fill="none" id="auth-to-external_login" style="stroke:#181818;stroke-width:1;"/><polygon fill="#181818" points="2256.68,419.002,2248.7993,413.0949,2251.806,417.8865,2247.0144,420.8932,2256.68,419.002" style="stroke:#181818;stroke-width:1;"/><text fill="#000000" font-family="sans-serif" font-size="13" lengthAdjust="spacing" textLength="148.2559" x="2112.5" y="379.3089">check with Google etc.</text></g><!--link auth to db--><g class="link" data-entity-1="ent0005" data-entity-2="ent0009" data-link-type="dependency" data-source-line="33" id="lnk18"><path d="M1242.09,336.362 C1220.51,352.932 1190.06,373.212 1159.5,383.242 C1059.85,415.942 792.73,401.632 688.5,413.242 C680.04,414.182 677.3295,414.4651 668.5995,415.6051" fill="none" id="auth-to-db" style="stroke:#181818;stroke-width:1;"/><polygon fill="#181818" points="662.65,416.382,672.0922,419.183,667.6079,415.7346,671.0563,411.2503,662.65,416.382" style="stroke:#181818;stroke-width:1;"/><text fill="#000000" font-family="sans-serif" font-size="13" lengthAdjust="spacing" textLength="167.8193" x="1196.5" y="379.3089">save / read user accounts</text></g><!--link core to db--><g class="link" data-entity-1="ent0006" data-entity-2="ent0009" data-link-type="dependency" data-source-line="35" id="lnk19"><path d="M813.48,332.302 C805.03,333.642 796.65,334.962 788.5,336.242 C701.44,349.882 672.81,329.952 592.5,366.242 C568.2,377.222 549.4956,392.283 532.5756,408.783" fill="none" id="core-to-db" style="stroke:#181818;stroke-width:1;"/><polygon fill="#181818" points="528.28,412.972,537.5161,409.5523,531.8597,409.4812,531.9308,403.8248,528.28,412.972" style="stroke:#181818;stroke-width:1;"/><text fill="#000000" font-family="sans-serif" font-size="13" lengthAdjust="spacing" textLength="140.4102" x="593.5" y="379.3089">read &amp; save app data</text></g><!--link core to files--><g class="link" data-entity-1="ent0006" data-entity-2="ent0010" data-link-type="dependency" data-source-line="36" id="lnk20"><path d="M813.77,336.262 C785.47,344.412 761.41,354.442 752.5,366.242 C738.38,384.942 747.0663,397.8881 769.1863,410.2881" fill="none" id="core-to-files" style="stroke:#181818;stroke-width:1;"/><polygon fill="#181818" points="774.42,413.222,768.5253,405.3319,770.0585,410.7771,764.6134,412.3103,774.42,413.222" style="stroke:#181818;stroke-width:1;"/><text fill="#000000" font-family="sans-serif" font-size="13" lengthAdjust="spacing" textLength="97.8618" x="753.5" y="379.3089">store / get files</text></g><!--link core to queue--><g class="link" data-entity-1="ent0006" data-entity-2="ent0011" data-link-type="dependency" data-source-line="37" id="lnk21"><path d="M1081.87,332.652 C1090.54,333.912 1099.14,335.122 1107.5,336.242 C1168.65,344.432 1330.39,334.852 1383.5,366.242 C1402.2,377.292 1413.2364,392.3373 1422.2264,409.3473" fill="none" id="core-to-queue" style="stroke:#181818;stroke-width:1;"/><polygon fill="#181818" points="1425.03,414.652,1424.3611,404.8259,1422.6937,410.2314,1417.2881,408.564,1425.03,414.652" style="stroke:#181818;stroke-width:1;"/><text fill="#000000" font-family="sans-serif" font-size="13" lengthAdjust="spacing" textLength="301.6089" x="1403.5" y="379.3089">start background tasks (PDF gen, emails, etc.)</text></g><!--link billing to db--><g class="link" data-entity-1="ent0007" data-entity-2="ent0009" data-link-type="dependency" data-source-line="39" id="lnk22"><path d="M527.86,315.132 C445.37,320.962 345.25,334.572 318.5,366.242 C300.13,388.002 307.317,401.3056 332.837,412.6456" fill="none" id="billing-to-db" style="stroke:#181818;stroke-width:1;"/><polygon fill="#181818" points="338.32,415.082,331.7197,407.772,333.7508,413.0516,328.4711,415.0827,338.32,415.082" style="stroke:#181818;stroke-width:1;"/><text fill="#000000" font-family="sans-serif" font-size="13" lengthAdjust="spacing" textLength="180.9146" x="319.5" y="379.3089">track subscriptions &amp; usage</text></g><!--link billing to queue--><g class="link" data-entity-1="ent0007" data-entity-2="ent0011" data-link-type="dependency" data-source-line="40" id="lnk23"><path d="M754.57,336.272 C788.44,344.942 825.74,355.242 859.5,366.242 C879.04,372.612 882.56,378.272 902.5,383.242 C1034.91,416.222 1184.3112,430.7348 1293.4112,437.4248" fill="none" id="billing-to-queue" style="stroke:#181818;stroke-width:1;"/><polygon fill="#181818" points="1299.4,437.792,1290.6617,433.2486,1294.4094,437.486,1290.1721,441.2336,1299.4,437.792" style="stroke:#181818;stroke-width:1;"/><text fill="#000000" font-family="sans-serif" font-size="13" lengthAdjust="spacing" textLength="243.1787" x="903.5" y="379.3089">trigger welcome email after payment</text></g><!--link notify to queue--><g class="link" data-entity-1="ent0008" data-entity-2="ent0011" data-link-type="dependency" data-source-line="42" id="lnk24"><path d="M1730.26,336.332 C1743.18,350.902 1753.18,369.022 1741.5,383.242 C1719.89,409.532 1651.3669,423.7645 1581.5469,432.1745" fill="none" id="notify-to-queue" style="stroke:#181818;stroke-width:1;"/><polygon fill="#181818" points="1575.59,432.892,1585.0038,435.787,1580.5541,432.2941,1584.0471,427.8444,1575.59,432.892" style="stroke:#181818;stroke-width:1;"/><text fill="#000000" font-family="sans-serif" font-size="13" lengthAdjust="spacing" textLength="85.4331" x="1747.5" y="379.3089">pick up tasks</text></g><!--link notify to users--><g class="link" data-entity-1="ent0008" data-entity-2="ent0002" data-link-type="dependency" data-source-line="43" id="lnk25"><path d="M1650.13,283.192 C1542.19,229.522 1298.8224,108.4936 1197.2724,57.9936" fill="none" id="notify-to-users" style="stroke:#181818;stroke-width:1;"/><polygon fill="#181818" points="1191.9,55.322,1198.1775,62.911,1196.377,57.5484,1201.7396,55.7479,1191.9,55.322" style="stroke:#181818;stroke-width:1;"/><text fill="#000000" font-family="sans-serif" font-size="13" lengthAdjust="spacing" textLength="186.8687" x="1452.5" y="163.3089">send email or push message</text></g><!--link frontend to GMN26--><g class="link" data-entity-1="ent0003" data-entity-2="ent0027" data-link-type="association" data-source-line="46" id="lnk28"><path d="M821.88,160.692 C681.03,164.862 447.23,181.182 255.5,240.242 C212.09,253.612 166.08,281.242 141.82,297.022" fill="none" id="frontend-GMN26" style="stroke:#181818;stroke-width:1;stroke-dasharray:7,7;"/></g><!--link core to GMN29--><g class="link" data-entity-1="ent0006" data-entity-2="ent0030" data-link-type="association" data-source-line="50" id="lnk31"><path d="M1081.79,333.312 C1090.48,334.412 1099.1,335.402 1107.5,336.242 C1434.15,368.802 1523.28,303.512 1845.5,366.242 C1917.11,380.182 1996.85,413.862 2036.04,431.702" fill="none" id="core-GMN29" style="stroke:#181818;stroke-width:1;stroke-dasharray:7,7;"/></g><!--link GMN29 to GMN32--><g class="link" data-entity-1="ent0030" data-entity-2="ent0033" data-link-type="association" data-source-line="58" id="lnk34"><path d="M2060.5,456.822 C2060.5,476.912 2060.5,517.982 2060.5,538.112" fill="none" id="GMN29-GMN32" style="stroke:#181818;stroke-width:1;stroke-dasharray:7,7;"/></g><?plantuml-src RLJRRjj647tdLmpqO4U8PHikaWS_553YIml4YMmcpKDQ5ClbaDnekSlkHOvGz8Fo6_sopkpIajXOBoAvPyxEd3apVgtC89peeRV6oixP7Y6uY8NVdVXErFPHcHOQeVtXYRJzO0sQK8QjHd0eWp2jFeGOMwF70LwT7tnqmgpvu-lpef3QnXfcdpmw3o-iWQ4ZIh0kiSU0RZu3uI4oe2Y-VCRAgu1m1ijX-DsyU40X0xo4z_Wjd7xrzFHHA4tfrl2sBET_S6pZh0bewg8OX5oB5c7s8JeeXIYXtFg0_Gp-BWg0B-zigmnnbwerYpYCftGDqozZwFYACtYhqQqP5WTH2O_0H_akGK_CT2U8w0P5Y0vJY7KufloKwdBrApXB9V8vbRT11rICiiPdBaanpBKIsvvKzd04AosC9uuoE3KW9L1vIKyfY6f_exIcJkNmAhymmtLFed3yUnjKewH80Ka-Jy9mAVHtwnG_hgmFlN3hp68uOilgr2BaQcUfkAlnbLWuedLOth-3nLwKCsgAPJMNdqjuk2fp8-jgGdMZo3bbi8xQmdNzT2Zh-3qfJZPfj20H7ouoKKEHdlFwAsBafD1x1j_pAr4rvA6A-jsInbJYLrlv-RxYX2BYDr7hk_inoV9-J39H5l-Gtww_aGMDq92jKLARb4IMxjPQyle9tAhmIwnEu4v9PxrjGjODny0_DGSMHJ8mB1O_x-m8-NS96qMMPXCGXYhQdJEO_GGxf2TV0h5D86oJFOGu87G8OXYciD4EJx2XTQ9c1GP1tKtNC6gQDYDbXt8DZue0kMJ084_t4NK5anzbAJPCx53KQMx9rP9w4AYsbElpKGb-b8Cf-UIHFJvrUtfBuBCpQ36CNjY1ioEcOE72eHs2y6jQEAkh6o8m9u1fGavIRVEYU1BhXrGlQJqI2_Z9v1rHdUIzITWa2GvJRKjQFAAMl6NJXI0QafjRm0DU57dOdgdX4WP5jz9AIeaV0hEn3ahbXcTsce0X-WxwF1g97w6o8TWURBDVZ02VV1HQRw6ZKSOQQ6v_GoTHfoaEcbS0ypB13pJZdlf0jPXnaL4xIDsHeeachpKYkwvRd1zG7V-FYzR3CS23VLnet52iHncT2blWSUwZ3cf1jmWIw_ZPV2YFVx_3nVd5QvhLpKUKtIaijGPIlwCPesNC-TMd-nJ-0m00?></g></svg>